<svg width="259" height="49" viewBox="0 0 259 49" fill="none" xmlns="http://www.w3.org/2000/svg">
<path d="M197.414 10.6987C196.785 10.6987 196.276 10.1892 196.276 9.56012V1.13901C196.276 0.509897 195.766 0.000398506 195.137 0.000398506H164.327C162.025 0.000398506 159.863 0.898635 158.247 2.52259L152.449 8.32145C150.836 9.94196 149.948 12.0938 149.948 14.3802V46.9031C149.948 47.5322 150.457 48.0417 151.087 48.0417H162.269C162.898 48.0417 163.408 47.5322 163.408 46.9031V14.5999C163.407 13.9708 163.916 13.4613 164.545 13.4613H176.527C177.034 13.4613 177.288 14.0743 176.93 14.4331L173.217 18.1468C172.441 18.9232 172.005 19.9767 172.005 21.0739V46.9031C172.005 47.5322 172.514 48.0417 173.143 48.0417H184.326C184.955 48.0417 185.465 47.5322 185.465 46.9031V21.856C185.465 21.3074 185.683 20.7806 186.071 20.3919L192.667 13.7937C192.88 13.5798 193.17 13.4601 193.472 13.4601C193.798 13.4601 194.062 13.7247 194.062 14.0502V46.9019C194.062 47.531 194.571 48.0405 195.2 48.0405H206.383C207.012 48.0405 207.521 47.531 207.521 46.9019V11.8373C207.521 11.2082 207.011 10.6976 206.382 10.6976L197.414 10.6987Z" fill="#000000"/>
<path d="M256.327 8.32145L250.53 2.52259C248.915 0.898635 246.753 0.000398506 244.451 0.000398506H227.188C224.887 0.000398506 222.725 0.898635 221.109 2.52259L215.311 8.32145C213.697 9.94196 212.81 12.0938 212.81 14.3802V46.9019C212.81 47.531 213.32 48.0417 213.949 48.0417H225.13C225.759 48.0417 226.269 47.531 226.269 46.9019V35.7769C226.269 35.1478 226.779 34.6383 227.408 34.6383H244.232C244.861 34.6383 245.37 35.1489 245.37 35.778V46.9019C245.37 47.531 245.88 48.0417 246.509 48.0417H257.689C258.318 48.0417 258.829 47.531 258.829 46.9019V14.3802C258.829 12.0938 257.941 9.94196 256.327 8.32145ZM227.912 26.9003C227.731 27.0809 227.486 27.1821 227.231 27.1821C226.699 27.1821 226.268 26.7508 226.268 26.2195V14.5999C226.268 13.9708 226.779 13.4601 227.408 13.4601H244.233C244.862 13.4601 245.373 13.9708 245.373 14.5999V21.1774H234.67C234.007 21.1774 233.371 21.4408 232.903 21.9089L227.912 26.9003Z" fill="#000000"/>
<path d="M93.2544 14.3584C93.2544 12.0754 92.3666 9.927 90.7449 8.30075L84.9633 2.52604C83.3405 0.897485 81.1783 0.000398506 78.8769 0.000398506H59.593C57.2916 0.000398506 55.1294 0.897485 53.5135 2.51799L47.7158 8.3088C46.1022 9.927 45.2143 12.0754 45.2143 14.3584V33.6837C45.2143 35.9667 46.1022 38.1151 47.7227 39.7413L53.5043 45.516C55.1283 47.1446 57.2893 48.0417 59.5918 48.0417H78.8769C81.1783 48.0417 83.3405 47.1446 84.9564 45.5241L90.7541 39.7333C92.3677 38.1151 93.2556 35.9667 93.2556 33.6837L93.2544 14.3584ZM79.8326 33.464C79.8326 34.0931 79.3231 34.6026 78.694 34.6026H59.777C59.1479 34.6026 58.6384 34.0931 58.6384 33.464V14.5792C58.6384 13.9501 59.1479 13.4406 59.777 13.4406H78.694C79.3231 13.4406 79.8326 13.9501 79.8326 14.5792V33.464Z" fill="#000000"/>
<path d="M1.13976 48.0417C0.510649 48.0417 0 47.531 0 46.9019V14.3802C0 12.0938 0.887886 9.94196 2.50149 8.32145L8.2992 2.52259C9.91511 0.898635 12.0762 0.000398506 14.3775 0.000398506H39.1969C39.826 0.000398506 40.3367 0.511048 40.3367 1.14016V8.85625C40.3367 9.15873 40.2171 9.44856 40.0032 9.66248L36.5356 13.1289C36.3217 13.3428 36.0318 13.4624 35.7293 13.4624L14.5961 13.4613C13.9669 13.4613 13.4563 13.9719 13.4563 14.6011V25.7939C13.4563 26.423 13.9669 26.9337 14.5961 26.9337C14.8985 26.9337 15.1884 26.8141 15.4023 26.6002L20.0901 21.9112C20.5582 21.4419 21.1942 21.1797 21.8567 21.1797H39.1958C39.8249 21.1797 40.3355 21.6903 40.3355 22.3194V30.0355C40.3355 30.338 40.2159 30.6278 40.002 30.8418L36.5356 34.3082C36.3217 34.5221 36.0318 34.6417 35.7293 34.6417H14.5984C13.9692 34.6406 13.4586 35.1501 13.4586 35.7792V46.9042C13.4586 47.5333 12.9479 48.044 12.3188 48.044H1.13976V48.0417Z" fill="#000000"/>
<path d="M113.028 0.000398506C110.727 0.000398506 108.565 0.898635 106.949 2.52259L101.151 8.3226C99.5386 9.94311 98.6496 12.095 98.6496 14.3814V46.9031C98.6496 47.5322 99.1603 48.0428 99.7894 48.0428H110.97C111.599 48.0428 112.109 47.5322 112.109 46.9031V14.5999C112.109 13.9708 112.619 13.4613 113.248 13.4613H130.072C130.701 13.4613 131.21 13.9719 131.21 14.5999V20.0238C131.21 20.6529 130.701 21.1624 130.072 21.1624H127.301C126.639 21.1624 126.003 21.4258 125.535 21.8951L119.564 27.8676C118.59 28.8417 118.589 30.4197 119.561 31.3961L135.52 47.431C135.909 47.8209 136.436 48.0405 136.986 48.0405L143.532 48.0428C144.161 48.0428 144.671 47.5322 144.671 46.9031V38.1657C144.671 37.6171 144.453 37.0903 144.065 36.7016L134.775 27.4052C134.338 26.9682 134.646 26.2195 135.263 26.2172L142.165 26.1884C143.551 26.1827 144.671 25.0579 144.671 23.672V14.2388C144.648 11.9523 143.74 9.80969 142.111 8.20529L136.257 2.46279C134.623 0.856081 132.453 -0.0214536 130.151 0.000398506H113.028Z" fill="#000000"/>
</svg>
